<?xml version="1.0" encoding="UTF-8" standalone="no" ?>
<!DOCTYPE svg PUBLIC "-//W3C//DTD SVG 1.1//EN" "http://www.w3.org/Graphics/SVG/1.1/DTD/svg11.dtd">
<svg xmlns="http://www.w3.org/2000/svg" xmlns:xlink="http://www.w3.org/1999/xlink" version="1.1" width="100" height="50" viewBox="0 0 250 100" xml:space="preserve">
<desc>Created with Fabric.js 5.3.0</desc>
<defs>
</defs>
<g transform="matrix(1 0 0 1 114.4480519481 18.6211525974)" id="XTkkK8da_2Zp6oLS6FLNH"  >
<path style="stroke: rgb(0,0,0); stroke-width: 0.5; stroke-dasharray: none; stroke-linecap: butt; stroke-dashoffset: 0; stroke-linejoin: miter; stroke-miterlimit: 4; fill: rgb(255,255,255); fill-opacity: 0; fill-rule: nonzero; opacity: 1;"  transform=" translate(0, 0)" d="M -20.49513 1.37338 L 20.49513 1.37338 L 20.49513 -1.37337 L -20.49513 -1.37337 z" stroke-linecap="round" />
</g>
<g transform="matrix(1 0 0 1 -4.0584415584 -10.1663961039)" id="AmRJl8x1tJwxqC0a3mFEj"  >
<path style="stroke: rgb(0,0,0); stroke-width: 1; stroke-dasharray: none; stroke-linecap: round; stroke-dashoffset: 0; stroke-linejoin: round; stroke-miterlimit: 10; fill: none; fill-rule: nonzero; opacity: 1;"  transform=" translate(4.0584415584, 10.1663961039)" d="M -4.059441558441558 -10.16639610389609 L -4.057441558441558 -10.16639610389609" stroke-linecap="round" />
</g>
<g transform="matrix(0.555 0 0 0.555 91.112012987 18.6211547597)" id="_3iSYgwq8C-kxxM9skEOr"  >
<path style="stroke: rgb(0,0,0); stroke-width: 1; stroke-dasharray: none; stroke-linecap: butt; stroke-dashoffset: 0; stroke-linejoin: miter; stroke-miterlimit: 4; fill: rgb(223,119,0); fill-rule: nonzero; opacity: 1;"  transform=" translate(0, 0)" d="M 0 -10.1461 C 5.60065 -10.1461 10.1461 -5.600650000000001 10.1461 0 C 10.1461 5.60065 5.600650000000001 10.1461 0 10.1461 C -5.60065 10.1461 -10.1461 5.600650000000001 -10.1461 0 C -10.1461 -5.60065 -5.600650000000001 -10.1461 0 -10.1461 z" stroke-linecap="round" />
</g>
<g transform="matrix(1 0 0 1 114.4480519481 43.4718019481)" id="OM9vhOwrx4wkdVe133-M9"  >
<path style="stroke: rgb(0,0,0); stroke-width: 1; stroke-dasharray: none; stroke-linecap: butt; stroke-dashoffset: 0; stroke-linejoin: miter; stroke-miterlimit: 4; fill: rgb(223,119,0); fill-rule: nonzero; opacity: 1;"  transform=" translate(0, 0)" d="M -13.7987 -22.72727 L -0.20292000000000066 22.727279999999997 L 1.4204599999999994 -4.464280000000002 L 8.31981 21.71267 L 13.79871 -22.72727 L 5.8847499999999995 -8.72565 L 1.4204599999999994 -8.72565 L -2.8409000000000004 -8.72565 z" stroke-linecap="round" />
</g>
<g transform="matrix(0.48 0 0 0.48 116.0714285714 29.6398701299)" id="y9m67C77J4KSM2TrI7rAk"  >
<path style="stroke: rgb(0,0,0); stroke-width: 1; stroke-dasharray: none; stroke-linecap: butt; stroke-dashoffset: 0; stroke-linejoin: miter; stroke-miterlimit: 4; fill: rgb(227,213,192); fill-rule: nonzero; opacity: 1;"  transform=" translate(0, 0)" d="M 0 -10.1461 C 5.60065 -10.1461 10.1461 -5.600650000000001 10.1461 0 C 10.1461 5.60065 5.600650000000001 10.1461 0 10.1461 C -5.60065 10.1461 -10.1461 5.600650000000001 -10.1461 0 C -10.1461 -5.60065 -5.600650000000001 -10.1461 0 -10.1461 z" stroke-linecap="round" />
</g>
<g transform="matrix(0.555 0 0 0.555 137.3745941558 18.6211525974)" id="tm0OVLc2r42RzoFMYHtoc"  >
<path style="stroke: rgb(0,0,0); stroke-width: 1; stroke-dasharray: none; stroke-linecap: butt; stroke-dashoffset: 0; stroke-linejoin: miter; stroke-miterlimit: 4; fill: rgb(223,119,0); fill-rule: nonzero; opacity: 1;"  transform=" translate(0, 0)" d="M 0 -10.1461 C 5.60065 -10.1461 10.1461 -5.600650000000001 10.1461 0 C 10.1461 5.60065 5.600650000000001 10.1461 0 10.1461 C -5.60065 10.1461 -10.1461 5.600650000000001 -10.1461 0 C -10.1461 -5.60065 -5.600650000000001 -10.1461 0 -10.1461 z" stroke-linecap="round" />
</g>
</svg>