<svg xmlns="http://www.w3.org/2000/svg" xmlns:xlink="http://www.w3.org/1999/xlink" version="1.1" width="1000" height="1000" viewBox="0 0 1000 1000" xml:space="preserve">
<g transform="matrix(31.2697 0 0 31.2697 594.8189 500.0002)" id="928612">
<g style="" vector-effect="non-scaling-stroke">
		<g transform="matrix(0.4 0 0 0.4 -4.2207 -7.5516)" id="XTkkK8da_2Zp6oLS6FLNH">
<path style="stroke: rgb(0,0,0); stroke-width: 0.5; stroke-dasharray: none; stroke-linecap: butt; stroke-dashoffset: 0; stroke-linejoin: miter; stroke-miterlimit: 4; is-custom-font: none; font-file-url: none; fill: rgb(255,255,255); fill-opacity: 0; fill-rule: nonzero; opacity: 1;" transform=" translate(0, 0)" d="M -20.49513 1.37338 L 20.49513 1.37338 L 20.49513 -1.37337 L -20.49513 -1.37337 z" stroke-linecap="round"/>
</g>
		<g transform="matrix(0.4 0 0 0.4 -51.6234 -19.0666)" id="AmRJl8x1tJwxqC0a3mFEj">
<path style="stroke: rgb(0,0,0); stroke-width: 1; stroke-dasharray: none; stroke-linecap: round; stroke-dashoffset: 0; stroke-linejoin: round; stroke-miterlimit: 10; is-custom-font: none; font-file-url: none; fill: none; fill-rule: nonzero; opacity: 1;" transform=" translate(4.0584, 10.1664)" d="M -4.059441558441558 -10.16639610389609 L -4.057441558441558 -10.16639610389609" stroke-linecap="round"/>
</g>
		<g transform="matrix(0.222 0 0 0.222 -13.5552 -7.5516)" id="_3iSYgwq8C-kxxM9skEOr">
<path style="stroke: rgb(0,0,0); stroke-width: 1; stroke-dasharray: none; stroke-linecap: butt; stroke-dashoffset: 0; stroke-linejoin: miter; stroke-miterlimit: 4; is-custom-font: none; font-file-url: none; fill: rgb(223,119,0); fill-rule: nonzero; opacity: 1;" transform=" translate(0, 0)" d="M 0 -10.1461 C 5.60065 -10.1461 10.1461 -5.600650000000001 10.1461 0 C 10.1461 5.60065 5.600650000000001 10.1461 0 10.1461 C -5.60065 10.1461 -10.1461 5.600650000000001 -10.1461 0 C -10.1461 -5.60065 -5.600650000000001 -10.1461 0 -10.1461 z" stroke-linecap="round"/>
</g>
		<g transform="matrix(0.4 0 0 0.4 -4.2208 2.3887)" id="OM9vhOwrx4wkdVe133-M9">
<path style="stroke: rgb(0,0,0); stroke-width: 1; stroke-dasharray: none; stroke-linecap: butt; stroke-dashoffset: 0; stroke-linejoin: miter; stroke-miterlimit: 4; is-custom-font: none; font-file-url: none; fill: rgb(223,119,0); fill-rule: nonzero; opacity: 1;" transform=" translate(0, 0)" d="M -13.7987 -22.72727 L -0.20292000000000066 22.727279999999997 L 1.4204599999999994 -4.464280000000002 L 8.31981 21.71267 L 13.79871 -22.72727 L 5.8847499999999995 -8.72565 L 1.4204599999999994 -8.72565 L -2.8409000000000004 -8.72565 z" stroke-linecap="round"/>
</g>
		<g transform="matrix(0.192 0 0 0.192 -3.5714 -3.144)" id="y9m67C77J4KSM2TrI7rAk">
<path style="stroke: rgb(0,0,0); stroke-width: 1; stroke-dasharray: none; stroke-linecap: butt; stroke-dashoffset: 0; stroke-linejoin: miter; stroke-miterlimit: 4; is-custom-font: none; font-file-url: none; fill: rgb(227,213,192); fill-rule: nonzero; opacity: 1;" transform=" translate(0, 0)" d="M 0 -10.1461 C 5.60065 -10.1461 10.1461 -5.600650000000001 10.1461 0 C 10.1461 5.60065 5.600650000000001 10.1461 0 10.1461 C -5.60065 10.1461 -10.1461 5.600650000000001 -10.1461 0 C -10.1461 -5.60065 -5.600650000000001 -10.1461 0 -10.1461 z" stroke-linecap="round"/>
</g>
		<g transform="matrix(0.222 0 0 0.222 4.9498 -7.5516)" id="tm0OVLc2r42RzoFMYHtoc">
<path style="stroke: rgb(0,0,0); stroke-width: 1; stroke-dasharray: none; stroke-linecap: butt; stroke-dashoffset: 0; stroke-linejoin: miter; stroke-miterlimit: 4; is-custom-font: none; font-file-url: none; fill: rgb(223,119,0); fill-rule: nonzero; opacity: 1;" transform=" translate(0, 0)" d="M 0 -10.1461 C 5.60065 -10.1461 10.1461 -5.600650000000001 10.1461 0 C 10.1461 5.60065 5.600650000000001 10.1461 0 10.1461 C -5.60065 10.1461 -10.1461 5.600650000000001 -10.1461 0 C -10.1461 -5.60065 -5.600650000000001 -10.1461 0 -10.1461 z" stroke-linecap="round"/>
</g>
</g>
</g>
</svg>